<?xml version="1.0" encoding="UTF-8"?>
<svg id="b" data-name="图层 2" xmlns="http://www.w3.org/2000/svg" xmlns:xlink="http://www.w3.org/1999/xlink" viewBox="0 0 435 128">
  <defs>
    <style>
      .g {
        fill: url(#d);
      }

      .g, .h, .i, .j {
        stroke-miterlimit: 10;
      }

      .g, .i, .j {
        stroke: #333;
        stroke-width: .25px;
      }

      .h {
        stroke: #000;
      }

      .k {
        fill: none;
        stroke-width: 0px;
      }

      .i {
        fill: url(#e);
      }

      .j {
        fill: url(#f);
      }
    </style>
    <linearGradient id="d" data-name="未命名的渐变 116" x1="5" y1="64.02" x2="89" y2="64.02" gradientUnits="userSpaceOnUse">
      <stop offset="0" stop-color="#495aff"/>
      <stop offset=".29" stop-color="#475cfe"/>
      <stop offset=".47" stop-color="#4364fe"/>
      <stop offset=".61" stop-color="#3b73fe"/>
      <stop offset=".74" stop-color="#3087fe"/>
      <stop offset=".85" stop-color="#22a1fe"/>
      <stop offset=".96" stop-color="#11c1fe"/>
      <stop offset="1" stop-color="#0acffe"/>
    </linearGradient>
    <linearGradient id="e" data-name="未命名的渐变 116" x1="38.66" y1="79.82" x2="85.44" y2="79.82" xlink:href="#d"/>
    <linearGradient id="f" data-name="未命名的渐变 116" x1="55.85" y1="61.29" x2="85.81" y2="61.29" xlink:href="#d"/>
  </defs>
  <g id="c" data-name="图层 6">
    <rect class="k" width="435" height="128"/>
    <g>
      <path class="h" d="m138.94,80.61c-1.3,1.96-3.1,3.46-5.4,4.5-2.3,1.04-4.95,1.56-7.95,1.56-4.2,0-7.86-.99-10.98-2.97-3.12-1.98-5.18-4.63-6.18-7.95l5.22-3c1.04,2.56,2.58,4.54,4.62,5.94,2.04,1.4,4.54,2.1,7.5,2.1,2.64,0,4.69-.57,6.15-1.71,1.46-1.14,2.19-2.73,2.19-4.77,0-1.64-.47-2.99-1.41-4.05-.94-1.06-2.11-1.88-3.51-2.46-1.4-.58-3.3-1.23-5.7-1.95-2.92-.88-5.24-1.71-6.96-2.49-1.72-.78-3.19-1.94-4.41-3.48-1.22-1.54-1.83-3.57-1.83-6.09s.68-4.9,2.04-6.78c1.36-1.88,3.19-3.29,5.49-4.23,2.3-.94,4.87-1.41,7.71-1.41,3.92,0,7.14.86,9.66,2.58,2.52,1.72,4.2,3.96,5.04,6.72l-5.22,3.06c-1.8-4.36-5.04-6.54-9.72-6.54-2.48,0-4.47.55-5.97,1.65-1.5,1.1-2.25,2.59-2.25,4.47,0,1.4.43,2.54,1.29,3.42.86.88,1.94,1.59,3.24,2.13s3.07,1.13,5.31,1.77c2.96.88,5.37,1.74,7.23,2.58,1.86.84,3.45,2.1,4.77,3.78,1.32,1.68,1.98,3.9,1.98,6.66s-.65,5-1.95,6.96Z"/>
      <path class="h" d="m165.19,84.75c-1.76,1.28-4.1,1.92-7.02,1.92s-5.37-.82-7.23-2.46c-1.86-1.64-2.79-4.56-2.79-8.76v-15.3h-5.28v-5.28h5.28v-9h6.12v9h9.18v5.28h-9.18v14.46c0,4.32,1.6,6.48,4.8,6.48,1.44,0,2.78-.38,4.02-1.14l2.1,4.8Z"/>
      <path class="h" d="m191.25,57.45c2.3,2.2,3.45,5.36,3.45,9.48v19.08h-5.34c-.08-1.8-.18-3.08-.3-3.84-1.92,3-5,4.5-9.24,4.5-2.08,0-3.99-.38-5.73-1.14-1.74-.76-3.13-1.86-4.17-3.3-1.04-1.44-1.56-3.18-1.56-5.22,0-3.08,1.26-5.52,3.78-7.32,2.52-1.8,5.74-2.7,9.66-2.7,2.2,0,4.46.3,6.78.9v-.12c0-2.84-.56-4.93-1.68-6.27-1.12-1.34-2.8-2.01-5.04-2.01-1.8,0-3.31.39-4.53,1.17-1.22.78-2.25,1.91-3.09,3.39l-4.56-2.64c1-2.2,2.62-3.96,4.86-5.28,2.24-1.32,4.8-1.98,7.68-1.98,3.72,0,6.73,1.1,9.03,3.3Zm-2.67,15.12c-2.4-.6-4.5-.9-6.3-.9-2.4,0-4.26.46-5.58,1.38-1.32.92-1.98,2.2-1.98,3.84,0,1.48.54,2.65,1.62,3.51,1.08.86,2.5,1.29,4.26,1.29,2.2,0,4.08-.63,5.64-1.89,1.56-1.26,2.34-3.01,2.34-5.25v-1.98Z"/>
      <path class="h" d="m220.12,54.57c.9.28,1.61.66,2.13,1.14l-2.34,4.86c-.92-.56-1.94-.84-3.06-.84-2.28,0-4.13.94-5.55,2.82-1.42,1.88-2.13,4.56-2.13,8.04v15.42h-6.18v-31.14h5.46c.08,1.92.2,3.6.36,5.04.92-1.92,2.09-3.36,3.51-4.32,1.42-.96,3.05-1.44,4.89-1.44,1.04,0,2.01.14,2.91.42Z"/>
      <path class="h" d="m264.12,42.09h5.1v43.92h-6.24v-31.8l-12.96,20.34h-3.66l-13.08-20.46v31.92h-6.12v-43.92h5.4l15.78,25.02,15.78-25.02Z"/>
      <path class="h" d="m289.32,42.09h33.54v5.7h-13.56v38.22h-6.48v-38.22h-13.5v-5.7Z"/>
      <path class="h" d="m341.64,56.04c2.04,1.26,3.62,2.98,4.74,5.16,1.12,2.18,1.68,4.63,1.68,7.35,0,.92-.1,2.02-.3,3.3h-21.84c.24,3.12,1.2,5.47,2.88,7.05,1.68,1.58,3.78,2.37,6.3,2.37,3.28,0,5.66-1.36,7.14-4.08l4.62,2.7c-.8,2.16-2.32,3.83-4.56,5.01-2.24,1.18-4.74,1.77-7.5,1.77s-5.42-.63-7.74-1.89c-2.32-1.26-4.17-3.13-5.55-5.61-1.38-2.48-2.07-5.44-2.07-8.88s.69-6.26,2.07-8.7c1.38-2.44,3.22-4.29,5.52-5.55,2.3-1.26,4.79-1.89,7.47-1.89s5.1.63,7.14,1.89Zm-12.69,5.46c-1.5,1.3-2.45,3.19-2.85,5.67h15.48c-.16-2.4-.9-4.27-2.22-5.61-1.32-1.34-3.02-2.01-5.1-2.01s-3.81.65-5.31,1.95Z"/>
      <path class="h" d="m375.63,57.45c2.3,2.2,3.45,5.36,3.45,9.48v19.08h-5.34c-.08-1.8-.18-3.08-.3-3.84-1.92,3-5,4.5-9.24,4.5-2.08,0-3.99-.38-5.73-1.14-1.74-.76-3.13-1.86-4.17-3.3-1.04-1.44-1.56-3.18-1.56-5.22,0-3.08,1.26-5.52,3.78-7.32,2.52-1.8,5.74-2.7,9.66-2.7,2.2,0,4.46.3,6.78.9v-.12c0-2.84-.56-4.93-1.68-6.27-1.12-1.34-2.8-2.01-5.04-2.01-1.8,0-3.31.39-4.53,1.17-1.22.78-2.25,1.91-3.09,3.39l-4.56-2.64c1-2.2,2.62-3.96,4.86-5.28,2.24-1.32,4.8-1.98,7.68-1.98,3.72,0,6.73,1.1,9.03,3.3Zm-2.67,15.12c-2.4-.6-4.5-.9-6.3-.9-2.4,0-4.26.46-5.58,1.38-1.32.92-1.98,2.2-1.98,3.84,0,1.48.54,2.65,1.62,3.51,1.08.86,2.5,1.29,4.26,1.29,2.2,0,4.08-.63,5.64-1.89,1.56-1.26,2.34-3.01,2.34-5.25v-1.98Z"/>
      <path class="h" d="m427.89,57.42c1.86,2.18,2.79,5.31,2.79,9.39v19.2h-6v-17.16c0-2.84-.48-5.05-1.44-6.63-.96-1.58-2.4-2.37-4.32-2.37s-3.59.79-4.89,2.37c-1.3,1.58-1.95,3.83-1.95,6.75v17.04h-6.06v-17.16c0-2.88-.47-5.1-1.41-6.66-.94-1.56-2.37-2.34-4.29-2.34s-3.59.8-4.89,2.4c-1.3,1.6-1.95,3.84-1.95,6.72v17.04h-6.12v-31.14h5.4c.04,1.28.14,2.84.3,4.68,1.04-1.8,2.34-3.15,3.9-4.05,1.56-.9,3.28-1.35,5.16-1.35,2.08,0,3.91.55,5.49,1.65,1.58,1.1,2.75,2.71,3.51,4.83,1-2.16,2.33-3.78,3.99-4.86,1.66-1.08,3.51-1.62,5.55-1.62,2.96,0,5.37,1.09,7.23,3.27Z"/>
    </g>
    <g>
      <path class="g" d="m89,34c0-2.76-2.24-5-5-5h-24.63l-7.61-23.41c-.67-2.06-2.59-3.45-4.75-3.45s-4.09,1.39-4.75,3.45l-7.61,23.41H10c-2.17,0-4.09,1.4-4.76,3.46-.67,2.06.06,4.32,1.82,5.59l19.93,14.47-7.61,23.41c-.14.43-.2.86-.22,1.28-.18,1.69.49,3.42,1.95,4.52l57.34,43.18c.9.68,1.96,1.01,3,1.01,1.52,0,3.02-.69,4-1.99,1.66-2.21,1.22-5.34-.99-7l-54.54-41.07,7.7-23.69c.67-2.06-.06-4.32-1.82-5.59l-10.41-7.56h12.87c2.17,0,4.09-1.39,4.75-3.45l3.98-12.24,3.98,12.24c.67,2.06,2.59,3.45,4.75,3.45h28.27c2.76,0,5-2.24,5-5Z"/>
      <path class="i" d="m83.45,89.67l-36.77-27.69c-2.21-1.66-5.34-1.22-7,.99-1.66,2.21-1.22,5.34.99,7l36.77,27.69c.9.68,1.96,1.01,3,1.01,1.52,0,3.02-.69,4-1.99,1.66-2.21,1.22-5.34-.99-7Z"/>
      <path class="j" d="m83.82,64.81l-19.95-15.03c-2.21-1.66-5.34-1.22-7,.99-1.66,2.21-1.22,5.34.99,7l19.95,15.03c.9.68,1.96,1.01,3,1.01,1.52,0,3.02-.69,4-1.99,1.66-2.21,1.22-5.34-.99-7Z"/>
    </g>
  </g>
</svg>